HIERARCHY
ROOT Pelvis
{
	OFFSET 0.000000 0.000000 0.000000
	CHANNELS 6 Xposition Yposition Zposition Xrotation Yrotation Zrotation
	JOINT LeftUpLeg_virtual
	{
		OFFSET 0.000000 0.000000 0.000000
		CHANNELS 3 Xrotation Yrotation Zrotation
		JOINT LeftUpLeg
		{
			OFFSET 18.735201 -5.666702 -4.541200
			CHANNELS 3 Xrotation Yrotation Zrotation
			JOINT LeftLeg
			{
				OFFSET -0.021200 -31.938179 0.493100
				CHANNELS 3 Xrotation Yrotation Zrotation
				JOINT LeftFoot
				{
					OFFSET 0.021200 -31.938179 -4.336299
					CHANNELS 3 Xrotation Yrotation Zrotation
					JOINT LeftToeBase
					{
						OFFSET 0.943001 -26.722000 15.023500
						CHANNELS 3 Xrotation Yrotation Zrotation
						End Site
						{
							OFFSET 0 0 0
						}
					}
				}
			}
		}
	}
	JOINT RightUpLeg_virtual
	{
		OFFSET 0.000000 0.000000 0.000000
		CHANNELS 3 Xrotation Yrotation Zrotation
		JOINT RightUpLeg
		{
			OFFSET -18.735201 -5.666702 -4.541200
			CHANNELS 3 Xrotation Yrotation Zrotation
			JOINT RightLeg
			{
				OFFSET 0.018946 -31.938133 0.493100
				CHANNELS 3 Xrotation Yrotation Zrotation
				JOINT RightFoot
				{
					OFFSET -0.018946 -31.938126 -4.336299
					CHANNELS 3 Xrotation Yrotation Zrotation
					JOINT RightToeBase
					{
						OFFSET -0.943001 -26.722004 15.023500
						CHANNELS 3 Xrotation Yrotation Zrotation
						End Site
						{
							OFFSET 0 0 0
						}
					}
				}
			}
		}
	}
	JOINT Hips_virtual
	{
		OFFSET 0.000000 0.000000 0.000000
		CHANNELS 3 Xrotation Yrotation Zrotation
		JOINT Hips
		{
			OFFSET -0.000000 -0.000000 -0.000000
			CHANNELS 3 Xrotation Yrotation Zrotation
			JOINT Spine
			{
				OFFSET 0.000000 10.199997 -0.299500
				CHANNELS 3 Xrotation Yrotation Zrotation
				JOINT Spine1
				{
					OFFSET 0.000000 11.900002 -1.516600
					CHANNELS 3 Xrotation Yrotation Zrotation
					JOINT Spine2
					{
						OFFSET 0.000000 13.600006 -2.842500
						CHANNELS 3 Xrotation Yrotation Zrotation
						JOINT Neck_virtual
						{
							OFFSET 0.000000 0.000000 0.000000
							CHANNELS 3 Xrotation Yrotation Zrotation
							JOINT Neck
							{
								OFFSET 0.000000 9.624100 -2.890100
								CHANNELS 3 Xrotation Yrotation Zrotation
								JOINT Head
								{
									OFFSET 0.000000 14.068802 -1.351900
									CHANNELS 3 Xrotation Yrotation Zrotation
									End Site
									{
										OFFSET 0 0 0
									}
								}
							}
						}
						JOINT LeftShoulder_virtual
						{
							OFFSET 0.000000 0.000000 0.000000
							CHANNELS 3 Xrotation Yrotation Zrotation
							JOINT LeftShoulder
							{
								OFFSET 15.263000 10.923401 -0.547700
								CHANNELS 3 Xrotation Yrotation Zrotation
								JOINT LeftArm
								{
									OFFSET 25.438599 -2.830597 -13.032500
									CHANNELS 3 Xrotation Yrotation Zrotation
									JOINT LeftForeArm
									{
										OFFSET 29.960503 0.000000 0.000000
										CHANNELS 3 Xrotation Yrotation Zrotation
										JOINT LeftHand
										{
											OFFSET 27.849251 0.000000 0.000000
											CHANNELS 3 Xrotation Yrotation Zrotation
											End Site
											{
												OFFSET 0 0 0
											}
										}
									}
								}
							}
						}
						JOINT RightShoulder_virtual
						{
							OFFSET 0.000000 0.000000 0.000000
							CHANNELS 3 Xrotation Yrotation Zrotation
							JOINT RightShoulder
							{
								OFFSET -15.263000 10.923401 -0.547700
								CHANNELS 3 Xrotation Yrotation Zrotation
								JOINT RightArm
								{
									OFFSET -25.438599 -2.830597 -13.032500
									CHANNELS 3 Xrotation Yrotation Zrotation
									JOINT RightForeArm
									{
										OFFSET -29.960503 0.000000 0.000000
										CHANNELS 3 Xrotation Yrotation Zrotation
										JOINT RightHand
										{
											OFFSET -27.849251 0.000000 0.000000
											CHANNELS 3 Xrotation Yrotation Zrotation
											End Site
											{
												OFFSET 0 0 0
											}
										}
									}
								}
							}
						}
					}
				}
			}
		}
	}
}
MOTION
Frames: 6
Frame Time: 0.03333333
-12.760720 90.682404 11.528568 0.000000 0.000000 0.000000 -7.803845 -12.216212 5.519873 0.305728 10.234992 -3.394875 10.034287 6.623216 -5.838991 6.875017 -4.785750 -1.008730 0.000000 0.000000 0.000000 -8.050967 -11.256383 5.866333 -16.491400 -7.233705 -31.404397 40.153494 2.527254 3.297647 -17.825148 -4.060585 0.569738 0.000000 0.000000 0.000000 -8.036017 -11.484476 5.912249 -0.619909 -0.096977 -0.121188 6.221815 -0.383644 -1.948296 4.199187 5.477188 -1.888149 0.000000 0.000000 0.000000 4.445431 6.600412 -2.080902 -4.458399 0.767269 4.368994 0.000000 0.000000 0.000000 1.605774 6.234482 -2.220880 -0.320019 -3.557297 -6.159408 11.862534 -14.089193 -71.690287 -8.833516 -46.534857 2.635181 0.000000 0.000000 0.000000 4.204022 7.630768 -2.295801 9.267350 -5.866156 3.976105 -9.535644 -3.438500 80.510343 20.132246 38.648407 -15.570454 0.000000 0.000000 0.000000 
-12.851587 90.844147 11.705402 0.000000 0.000000 0.000000 -7.663331 -12.057219 5.477538 -0.122319 10.541941 -3.220873 10.824547 6.819867 -5.985652 7.812806 -3.894945 -0.619887 0.000000 0.000000 0.000000 -7.788880 -10.908663 5.739482 -17.207068 -7.390143 -31.497687 40.854240 2.468560 3.123725 -16.419811 -4.098609 0.562094 0.000000 0.000000 0.000000 -8.008196 -11.250104 5.810100 -0.664945 -0.014979 -0.085224 6.718741 -0.228739 -1.678970 4.375002 5.199475 -1.682388 0.000000 0.000000 0.000000 4.523265 6.343100 -2.048124 -4.612627 0.612940 4.173955 0.000000 0.000000 0.000000 2.019237 5.992020 -1.898901 0.084098 -5.133693 -5.067298 13.513874 -17.270803 -70.052770 -8.704558 -49.707016 3.204788 0.000000 0.000000 0.000000 4.817014 7.454191 -2.200630 9.244345 -5.450470 3.522829 -9.091176 -0.551289 80.658742 20.214780 39.394004 -16.528802 0.000000 0.000000 0.000000 
-12.849777 91.257874 12.101738 0.000000 0.000000 0.000000 -7.297445 -11.847083 5.259667 -0.855720 10.078343 -3.024310 11.755903 6.717888 -5.983688 7.646210 -3.379851 -0.502939 0.000000 0.000000 0.000000 -7.314656 -10.473256 5.377675 -17.061058 -7.950442 -31.208241 40.268036 2.580745 2.705650 -13.820358 -4.194447 1.198075 0.000000 0.000000 0.000000 -7.840736 -10.983511 5.348587 -0.718867 0.033930 -0.069478 6.457534 -0.185822 -1.482501 5.364155 4.489880 -1.258167 0.000000 0.000000 0.000000 5.438953 5.754001 -1.826303 -4.529683 0.307517 3.734878 0.000000 0.000000 0.000000 3.105312 5.394154 -1.390844 0.409845 -7.962405 -2.344212 21.340373 -22.403546 -63.705113 -9.919072 -60.162827 2.625500 0.000000 0.000000 0.000000 5.841353 6.886342 -1.838471 9.639172 -3.951855 2.527873 -8.903774 4.807643 77.789632 20.348757 40.551154 -18.285666 0.000000 0.000000 0.000000 
-12.766785 91.823029 12.555103 0.000000 0.000000 0.000000 -6.665234 -11.466002 4.853993 -1.689322 8.770672 -2.725017 12.556494 6.268460 -5.851718 6.561367 -3.393889 -0.880846 0.000000 0.000000 0.000000 -6.613826 -10.007177 4.796886 -16.583358 -8.473113 -30.518446 39.238825 2.932047 2.336515 -10.963213 -4.088802 2.495131 0.000000 0.000000 0.000000 -7.358025 -10.810960 4.605432 -0.769075 0.023944 -0.101197 5.421948 -0.264272 -1.418301 6.905095 3.429185 -0.599901 0.000000 0.000000 0.000000 6.807978 4.869940 -1.337771 -4.169398 -0.089674 3.120077 0.000000 0.000000 0.000000 4.533311 4.496953 -0.750008 0.686485 -11.540599 0.927800 33.646031 -26.393707 -53.847074 -14.216106 -75.355387 -0.689872 0.000000 0.000000 0.000000 7.082487 6.002775 -1.271669 10.364477 -1.550864 1.484524 -8.690769 11.277678 72.454182 20.818603 41.918664 -21.007560 0.000000 0.000000 0.000000 
-12.564598 92.450470 12.896999 0.000000 0.000000 0.000000 -5.857603 -10.962127 4.285358 -2.804203 7.301676 -2.171975 13.438225 5.697218 -5.802192 5.840580 -3.680109 -1.697648 0.000000 0.000000 0.000000 -5.784256 -9.623301 4.061601 -17.144238 -8.417205 -29.962121 39.477431 3.684699 2.236205 -7.595258 -3.351202 4.409498 0.000000 0.000000 0.000000 -6.538038 -10.722781 3.755213 -0.775120 -0.017685 -0.147015 4.006722 -0.410331 -1.723206 8.536324 2.164335 0.289321 0.000000 0.000000 0.000000 8.229312 3.764522 -0.552314 -3.584133 -0.545838 2.417894 0.000000 0.000000 0.000000 6.049849 3.398470 0.040991 0.881602 -14.989731 3.624613 46.597343 -27.908093 -43.214679 -140.172871 -87.704929 -125.122686 0.000000 0.000000 0.000000 8.192230 4.890075 -0.481514 11.422407 1.538639 0.927993 -8.156695 17.695517 65.682521 21.775524 43.197921 -24.760829 0.000000 0.000000 0.000000 
-12.218615 93.065140 12.859848 0.000000 0.000000 0.000000 -4.889735 -10.348851 3.577411 -4.594695 6.141559 -1.315965 14.863018 5.326209 -5.998170 6.065240 -3.744757 -2.505667 0.000000 0.000000 0.000000 -4.869458 -9.339619 3.293027 -20.140565 -7.110130 -29.708007 42.648804 4.924475 2.331977 -3.325424 -1.705846 6.575687 0.000000 0.000000 0.000000 -5.308401 -10.812534 3.068394 -0.771233 -0.054259 -0.166761 2.807189 -0.571798 -2.533253 9.937434 0.861027 1.290254 0.000000 0.000000 0.000000 9.230832 2.568594 0.454260 -2.874806 -0.972463 1.721308 0.000000 0.000000 0.000000 7.375768 2.256876 0.943639 0.832677 -17.654152 4.812007 56.491105 -27.776798 -34.130858 176.496282 -75.946308 -166.477228 0.000000 0.000000 0.000000 9.029201 3.706033 0.471684 12.653640 5.252950 1.248817 -6.786241 22.673170 58.173780 23.586390 44.805730 -29.651699 0.000000 0.000000 0.000000 
